<?xml version="1.0" encoding="UTF-8"?>
<svg xmlns="http://www.w3.org/2000/svg" viewBox="0 0 1600 600">
  <defs>
    <style>
      .cls-1 {
        fill: #fff;
      }
    </style>
  </defs>
  <g id="Layer_3" data-name="Layer 3">
    <rect x="-.5" width="1600.5" height="600"/>
  </g>
  <g id="Layer_2" data-name="Layer 2">
    <g>
      <path class="cls-1" d="M440.58,220.97c.03-.19.06-.38.06-.58,0-.29-.05-.57-.12-.85-.07-.37-.22-.71-.44-1.01-.06-.09-.13-.17-.19-.25-.02-.02-.03-.04-.05-.06-.46-.55-1.08-.96-1.8-1.13l-31.63-18.26c-.27-.16-.56-.25-.85-.3-.62-.85-1.62-1.41-2.75-1.41-1.88,0-3.41,1.53-3.41,3.41,0,1.7,1.24,3.09,2.86,3.36.21.3.47.56.8.74l30.81,17.79v35.58c0,.33.07.65.19.94-.15.39-.24.81-.24,1.25,0,1.88,1.53,3.41,3.41,3.41s3.41-1.53,3.41-3.41c0-.44-.09-.86-.25-1.25.12-.29.19-.61.19-.94v-37.03Z"/>
      <path class="cls-1" d="M302.98,180.91c0-1.88-1.53-3.41-3.41-3.41s-3.41,1.53-3.41,3.41,1.53,3.41,3.41,3.41,3.41-1.53,3.41-3.41Z"/>
      <path class="cls-1" d="M261.71,200.74c0,1.88,1.53,3.41,3.41,3.41s3.41-1.53,3.41-3.41-1.53-3.41-3.41-3.41-3.41,1.53-3.41,3.41Z"/>
      <path class="cls-1" d="M261.71,400.45c0,1.88,1.53,3.41,3.41,3.41s3.41-1.53,3.41-3.41-1.53-3.41-3.41-3.41-3.41,1.53-3.41,3.41Z"/>
      <path class="cls-1" d="M296.16,420.55c0,1.88,1.53,3.41,3.41,3.41s3.41-1.53,3.41-3.41-1.53-3.41-3.41-3.41-3.41,1.53-3.41,3.41Z"/>
      <path class="cls-1" d="M368.4,184.09c1.88,0,3.41-1.53,3.41-3.41s-1.53-3.41-3.41-3.41-3.41,1.53-3.41,3.41,1.53,3.41,3.41,3.41Z"/>
      <path class="cls-1" d="M437.23,296.59c-1.88,0-3.41,1.53-3.41,3.41s1.53,3.41,3.41,3.41,3.41-1.53,3.41-3.41-1.53-3.41-3.41-3.41Z"/>
      <path class="cls-1" d="M437.23,336.4c-1.88,0-3.41,1.53-3.41,3.41,0,.44.09.86.24,1.25-.12.29-.19.61-.19.94v35.58l-30.81,17.79c-.37.21-.65.51-.86.85-1.59.29-2.8,1.68-2.8,3.35,0,1.88,1.53,3.41,3.41,3.41,1.19,0,2.23-.61,2.84-1.53.26-.05.52-.13.76-.27l31.29-18.07c1.65-.24,2.93-1.64,2.93-3.36,0-.2-.03-.39-.06-.58v-37.16c0-.33-.07-.65-.19-.94.15-.39.25-.81.25-1.25,0-1.88-1.53-3.41-3.41-3.41Z"/>
      <path class="cls-1" d="M402.77,243.63c1.88,0,3.41-1.53,3.41-3.41s-1.53-3.41-3.41-3.41-3.41,1.53-3.41,3.41,1.53,3.41,3.41,3.41Z"/>
      <path class="cls-1" d="M402.77,283.44c1.88,0,3.41-1.53,3.41-3.41s-1.53-3.41-3.41-3.41-3.41,1.53-3.41,3.41,1.53,3.41,3.41,3.41Z"/>
      <path class="cls-1" d="M402.77,323.25c1.88,0,3.41-1.53,3.41-3.41s-1.53-3.41-3.41-3.41-3.41,1.53-3.41,3.41,1.53,3.41,3.41,3.41Z"/>
      <path class="cls-1" d="M402.77,363.06c1.88,0,3.41-1.53,3.41-3.41s-1.53-3.41-3.41-3.41-3.41,1.53-3.41,3.41,1.53,3.41,3.41,3.41Z"/>
      <circle class="cls-1" cx="368.4" cy="419.39" r="3.41"/>
      <path class="cls-1" d="M333.99,435.8c-1.06,0-2,.49-2.62,1.25-.37.03-.73.13-1.06.32l-30.81,17.79-30.81-17.79c-.39-.23-.84-.33-1.29-.32-.61-.57-1.43-.93-2.33-.93-1.88,0-3.41,1.53-3.41,3.41s1.48,3.36,3.33,3.4c.11.09.22.18.35.25l32.29,18.64c.12.09.25.15.39.22l.24.14c.39.22.82.33,1.25.33.3,0,.59-.07.88-.18.57-.14,1.09-.42,1.51-.81l31.78-18.35c.27-.16.5-.36.69-.6,1.71-.18,3.05-1.61,3.05-3.37,0-1.88-1.53-3.41-3.41-3.41Z"/>
      <path class="cls-1" d="M230.63,416.15c-1.88,0-3.41,1.53-3.41,3.41s1.53,3.41,3.41,3.41,3.41-1.53,3.41-3.41-1.53-3.41-3.41-3.41Z"/>
      <path class="cls-1" d="M161.77,263.6c1.88,0,3.41-1.53,3.41-3.41,0-.44-.09-.86-.24-1.25.12-.29.19-.61.19-.94v-35.58l30.81-17.79c.32-.19.59-.44.79-.74,1.64-.25,2.9-1.65,2.9-3.36,0-1.88-1.53-3.41-3.41-3.41-1.13,0-2.12.55-2.74,1.4-.31.04-.61.14-.9.31l-31.63,18.26c-.72.18-1.34.58-1.79,1.13-.02.02-.04.05-.07.08-.06.08-.12.15-.18.23-.22.3-.37.65-.44,1.02-.07.27-.12.55-.12.84,0,.2.03.39.06.57v37.04c0,.33.07.65.19.94-.15.39-.24.81-.24,1.25,0,1.88,1.53,3.41,3.41,3.41Z"/>
      <path class="cls-1" d="M161.77,303.41c1.88,0,3.41-1.53,3.41-3.41s-1.53-3.41-3.41-3.41-3.41,1.53-3.41,3.41,1.53,3.41,3.41,3.41Z"/>
      <path class="cls-1" d="M230.67,184.09c1.88,0,3.41-1.53,3.41-3.41s-1.53-3.41-3.41-3.41-3.41,1.53-3.41,3.41,1.53,3.41,3.41,3.41Z"/>
      <circle class="cls-1" cx="368.4" cy="220.38" r="3.41"/>
      <circle class="cls-1" cx="230.67" cy="220.38" r="3.41"/>
      <circle class="cls-1" cx="368.4" cy="379.75" r="3.41"/>
      <circle class="cls-1" cx="230.67" cy="379.75" r="3.41"/>
      <circle class="cls-1" cx="333.95" cy="200.51" r="3.41"/>
      <path class="cls-1" d="M337.36,399.59c0-1.88-1.53-3.41-3.41-3.41s-3.41,1.53-3.41,3.41,1.53,3.41,3.41,3.41,3.41-1.53,3.41-3.41Z"/>
      <path class="cls-1" d="M196.22,236.81c-1.88,0-3.41,1.53-3.41,3.41s1.53,3.41,3.41,3.41,3.41-1.53,3.41-3.41-1.53-3.41-3.41-3.41Z"/>
      <circle class="cls-1" cx="196.22" cy="279.93" r="3.41"/>
      <circle class="cls-1" cx="196.22" cy="359.65" r="3.41"/>
      <path class="cls-1" d="M196.81,396.23c-.21-.34-.5-.65-.87-.86l-30.81-17.79v-35.58c0-.33-.07-.65-.19-.94.15-.39.24-.81.24-1.25,0-1.88-1.53-3.41-3.41-3.41s-3.41,1.53-3.41,3.41c0,.44.09.86.24,1.25-.12.29-.19.61-.19.94v37.04c-.03.19-.06.38-.06.57,0,.29.05.57.12.84.07.37.22.72.44,1.02.05.08.12.15.18.23.02.03.04.05.06.08.46.55,1.08.95,1.79,1.13l31.63,18.26c.24.14.5.22.77.27.61.93,1.66,1.54,2.85,1.54,0,0,0,0,0,0,0,0,0,0,0,0,1.88,0,3.41-1.53,3.41-3.41,0-1.68-1.22-3.07-2.83-3.35Z"/>
      <path class="cls-1" d="M196.18,323.44c1.88,0,3.41-1.53,3.41-3.41s-1.53-3.41-3.41-3.41-3.41,1.53-3.41,3.41,1.53,3.41,3.41,3.41Z"/>
      <path class="cls-1" d="M265.12,164.23c1.09,0,2.05-.52,2.67-1.32.3-.04.61-.13.89-.29l30.81-17.79,30.81,17.79c.33.19.68.29,1.03.32.62.78,1.57,1.29,2.65,1.29,1.88,0,3.41-1.53,3.41-3.41,0-1.75-1.32-3.17-3.02-3.37-.2-.25-.44-.47-.72-.63l-31.77-18.35c-.42-.39-.95-.68-1.53-.82-.69-.26-1.46-.22-2.11.16l-.19.11c-.16.08-.31.16-.45.26l-32.28,18.64c-.29.17-.53.39-.73.64-1.63.25-2.89,1.65-2.89,3.36,0,1.88,1.53,3.41,3.41,3.41Z"/>
      <path class="cls-1" d="M333.91,266.29c-2.85,0-5.49.88-7.68,2.37.82.13,1.63.41,2.39.86l8.79,5.24c3.24,1.93,4.29,6.12,2.36,9.35-1.28,2.14-3.54,3.33-5.86,3.33-1.19,0-2.39-.31-3.49-.97l-8.79-5.24c-.51-.3-.94-.68-1.34-1.08.13,7.42,6.16,13.41,13.62,13.41s13.64-6.11,13.64-13.64-6.11-13.64-13.64-13.64Z"/>
      <path class="cls-1" d="M285.96,260.47c.37-.36.78-.7,1.25-.98l8.78-5.25c2.15-1.29,4.84-1.29,6.99,0l8.79,5.24c.55.33,1.01.73,1.42,1.17-.07-7.47-6.14-13.51-13.63-13.51s-13.43,5.94-13.61,13.32Z"/>
      <path class="cls-1" d="M304.79,271.19l-5.29-3.16-5.29,3.16c-.75.45-1.56.68-2.37.82,2.2,1.52,4.86,2.42,7.73,2.42s5.48-.87,7.66-2.36c-.84-.13-1.67-.41-2.45-.88Z"/>
      <path class="cls-1" d="M265.07,294.27c2.63,0,5.06-.78,7.14-2.06-.52-.14-1.03-.34-1.52-.61l-8.91-5.02c-2.12-1.19-3.44-3.42-3.47-5.85-.03-2.43,1.24-4.7,3.32-5.94l8.78-5.25c.48-.29.98-.49,1.49-.64-2.02-1.17-4.33-1.9-6.83-1.9-7.53,0-13.64,6.11-13.64,13.64s6.11,13.64,13.64,13.64Z"/>
      <path class="cls-1" d="M333.91,306.2c-2.57,0-4.95.75-7,1.99.55.15,1.09.35,1.61.64l8.87,5.1c2.09,1.2,3.39,3.42,3.42,5.84s-1.23,4.66-3.29,5.91l-8.76,5.29c-.5.3-1.03.51-1.57.67,1.99,1.14,4.26,1.84,6.72,1.84,7.53,0,13.64-6.11,13.64-13.64s-6.11-13.64-13.64-13.64Z"/>
      <path class="cls-1" d="M292.62,328.99c.51.15,1.01.35,1.49.62l5.34,3.12,5.29-3.19c.5-.3,1.03-.51,1.57-.67-1.99-1.14-4.27-1.84-6.73-1.84s-4.92.75-6.96,1.97Z"/>
      <path class="cls-1" d="M313.22,340.67c0-.2-.05-.38-.06-.58-.41.42-.85.81-1.37,1.13l-8.76,5.29c-1.08.66-2.31.98-3.53.98s-2.38-.31-3.44-.93l-8.84-5.16c-.47-.28-.89-.61-1.27-.98,0,.08-.02.16-.02.24,0,7.53,6.11,13.64,13.64,13.64s13.64-6.11,13.64-13.64Z"/>
      <path class="cls-1" d="M272,332.25c-.52-.15-1.04-.35-1.53-.64l-8.84-5.16c-3.25-1.9-4.35-6.08-2.45-9.33,1.9-3.25,6.07-4.35,9.33-2.45l8.84,5.16c.5.29.94.66,1.33,1.05,0-.11.03-.21.03-.32,0-7.53-6.11-13.64-13.64-13.64s-13.64,6.11-13.64,13.64,6.11,13.64,13.64,13.64c2.54,0,4.89-.74,6.93-1.95Z"/>
      <path class="cls-1" d="M292.75,220.85c0,3.77,3.05,6.82,6.82,6.82s6.82-3.05,6.82-6.82-3.05-6.82-6.82-6.82-6.82,3.05-6.82,6.82Z"/>
      <circle class="cls-1" cx="333.99" cy="240.68" r="6.82" transform="translate(-16.22 24.28) rotate(-4.07)"/>
      <path class="cls-1" d="M368.4,253.27c-3.77,0-6.82,3.05-6.82,6.82s3.05,6.82,6.82,6.82,6.82-3.05,6.82-6.82-3.05-6.82-6.82-6.82Z"/>
      <path class="cls-1" d="M368.4,293.38c-3.77,0-6.82,3.05-6.82,6.82s3.05,6.82,6.82,6.82,6.82-3.05,6.82-6.82-3.05-6.82-6.82-6.82Z"/>
      <path class="cls-1" d="M368.4,332.99c-3.77,0-6.82,3.05-6.82,6.82s3.05,6.82,6.82,6.82,6.82-3.05,6.82-6.82-3.05-6.82-6.82-6.82Z"/>
      <circle class="cls-1" cx="333.91" cy="360.51" r="6.82"/>
      <path class="cls-1" d="M306.39,379.62c0-3.77-3.05-6.82-6.82-6.82s-6.82,3.05-6.82,6.82,3.05,6.82,6.82,6.82,6.82-3.05,6.82-6.82Z"/>
      <circle class="cls-1" cx="265.07" cy="359.65" r="6.82"/>
      <path class="cls-1" d="M230.67,332.99c-3.77,0-6.82,3.05-6.82,6.82s3.05,6.82,6.82,6.82,6.82-3.05,6.82-6.82-3.05-6.82-6.82-6.82Z"/>
      <path class="cls-1" d="M230.63,306.82c3.77,0,6.82-3.05,6.82-6.82s-3.05-6.82-6.82-6.82-6.82,3.05-6.82,6.82,3.05,6.82,6.82,6.82Z"/>
      <path class="cls-1" d="M230.63,267.61c3.77,0,6.82-3.05,6.82-6.82s-3.05-6.82-6.82-6.82-6.82,3.05-6.82,6.82,3.05,6.82,6.82,6.82Z"/>
      <circle class="cls-1" cx="265.07" cy="240.22" r="6.82"/>
      <polygon class="cls-1" points="300.05 289.05 288.98 299.94 300.05 310.95 310.87 299.94 300.05 289.05"/>
      <path class="cls-1" d="M570.45,312.31c-3.11-2.66-6.68-5.12-10.62-7.32-4.07-2.26-13.11-7.03-26.88-14.17-3.86-2.11-7.13-4.27-9.76-6.43-5.56-4.56-8.38-10.15-8.38-16.62,0-5.8,2.22-10.59,6.61-14.24,4.29-3.51,9.71-5.28,16.12-5.28,6.89,0,12.63,1.24,17.04,3.7,2.25,1.27,4.06,2.87,5.4,4.76,1.41,2,2.13,4.65,2.13,7.89,0,2.71-.92,5.55-2.72,8.44l3.18,2.11c1.98-.66,3.67-1.49,5.01-2.48,4.4-3.16,6.53-7.01,6.53-11.78s-3.18-8.83-9.73-11.97c-6.59-3.17-14.89-4.78-24.69-4.78-10.48,0-19.17,2.47-25.83,7.34-6.87,5-10.2,11.48-10.2,19.81,0,6.77,2.45,12.63,7.48,17.9,2.58,2.68,5.93,5.38,9.94,8.01,4.08,2.68,8.45,5.23,12.99,7.59,4.56,2.37,8.71,4.43,12.36,6.12,3.75,1.75,7.19,3.68,10.2,5.75,3.11,2.14,5.69,4.61,7.68,7.36,2.1,2.92,3.17,6.33,3.17,10.16s-.66,6.97-1.95,9.73c-4.01,8.53-12.68,12.86-25.76,12.86-7.52,0-14.14-2.23-19.69-6.63-2.54-2.04-4.59-4.43-6.08-7.09-1.54-2.74-2.32-5.4-2.32-7.91,0-2.27.15-4.36.45-6.21.28-1.77,1.17-3.78,2.71-6.11l-2.37-2.8c-3.24.82-6.29,2.48-9.1,4.95-1.67,1.44-3.08,3.18-4.21,5.18-1.07,1.91-1.62,4.14-1.62,6.63s.56,4.81,1.67,6.85c2.33,4.2,6.42,7.78,12.15,10.64,8.5,4.23,17.75,6.37,27.49,6.37,12.45,0,22.38-2.36,29.51-7.02,7.94-5.21,11.8-12.77,11.8-23.12,0-6.74-3.17-12.7-9.7-18.21Z"/>
      <path class="cls-1" d="M603.2,248.59c2.14.22,3.93.47,5.34.73,2.1.4,3.92,1.3,5.41,2.67,1.74,1.6,2.49,5.15,2.49,11.88v76.67c0,6.31-.86,10.23-2.72,12.34-.93,1.02-2.84,2.29-9.66,3.19l-.86.13v2.62h37.86v-2.64l-1.22-.19c-2.38-.37-4.22-.72-5.64-1.07-1.78-.44-3.28-1.4-4.48-2.86-.9-1.1-1.83-3.33-1.83-11.52v-76.67c0-6.6.93-10.54,2.93-12.4,1.24-1.1,2.92-1.82,5.02-2.16,1.39-.22,3.14-.46,5.21-.7v-2.87h-37.86v2.84Z"/>
      <path class="cls-1" d="M729.21,306.94c9.87.8,12.82,2.05,14.17,2.94,2.94,1.85,4.5,5.94,4.73,12.47l.96,23.27-.69.63c-6.83,6.18-17.64,9.32-32.14,9.32s-26.09-5.94-33.84-17.65c-6.52-9.83-9.82-21.71-9.82-35.31,0-9.5,1.19-17.93,3.54-25.04,1.32-3.96,3.08-7.74,5.25-11.25,2.21-3.58,5.03-6.73,8.39-9.36,3.35-2.63,7.35-4.73,11.88-6.25,4.52-1.52,9.14-2.28,13.72-2.28s8.51.35,11.95,1.03c7.33,1.38,13.33,4,17.81,7.78,4.17,3.43,6.3,8.69,6.3,15.61,0,1.28-.03,2.59-.08,3.91l-.16,2.28h3.58l9.13-35.03h-3.69c-3.31,4.22-6.42,6.27-9.48,6.27-2.78,0-6.61-.78-11.7-2.39l-4.33-1.29c-5.4-1.62-11.26-2.44-17.41-2.44-18.8,0-33.74,6.13-44.41,18.22-9.67,10.9-14.57,24.43-14.57,40.23s4.93,29.13,14.66,40.23c10.52,11.94,25.17,17.99,43.57,17.99,11.72,0,21.85-2.09,30.1-6.22l2.72-1.36,1.98,35.28h5.77l3.2-66.2c.22-6.24,1-10.08,2.46-12.04.85-1.2,2.05-2.05,3.53-2.49.71-.21,1.52-.41,2.43-.62v-2.88h-39.46v2.65Z"/>
      <path class="cls-1" d="M789.85,248.59c2.14.22,3.93.47,5.34.73,2.1.4,3.92,1.3,5.41,2.67,1.74,1.6,2.49,5.15,2.49,11.88v76.67c0,6.31-.86,10.23-2.72,12.34-.93,1.02-2.84,2.29-9.66,3.19l-.86.13v2.62h37.86v-2.64l-1.22-.19c-2.38-.37-4.22-.72-5.64-1.07-1.78-.44-3.28-1.4-4.48-2.86-.9-1.1-1.83-3.33-1.83-11.52v-76.67c0-6.6.93-10.54,2.93-12.4,1.24-1.1,2.92-1.82,5.02-2.16,1.39-.22,3.14-.46,5.21-.7v-2.87h-37.86v2.84Z"/>
      <path class="cls-1" d="M935.42,345.3c-1.39,2.09-3.05,3.76-4.95,5-1.88,1.22-4.24,2.16-7.01,2.76-2.65.58-5.88.96-9.6,1.12-3.65.15-8.84.23-15.43.23s-11.5-.41-14.11-1.24c-3.91-1.24-5.98-4.15-5.98-8.41v-83.48c0-2.46.23-4.42.7-5.97.54-1.78,1.74-3.34,3.56-4.62,1.14-.8,3.41-1.76,10.67-2.24v-2.69h-40.61v2.83c2.37.23,4.3.5,5.86.83,2.17.45,4.05,1.3,5.57,2.55,1.81,1.48,2.65,4.54,2.65,9.62v81.26c0,2.24-.12,4.13-.37,5.61-.3,1.83-1.25,3.47-2.82,4.87-1.07.96-3.23,2.04-10.89,2.88v2.62h75.82c2.31,0,4.23.71,5.7,2.12,1.06,1.01,1.79,2.3,2.19,3.85h3.16l5.29-35.33h-3.29c-2.34,7.92-4.34,13.1-6.09,15.84Z"/>
      <polygon class="cls-1" points="962.23 351.42 973.3 362.43 984.12 351.42 973.3 340.54 962.23 351.42"/>
      <path class="cls-1" d="M1086.04,338.83c-.94,3.35-2.34,6.14-4.15,8.29-3.43,4.17-9.74,6.3-18.75,6.3h-44.34l71.95-105.42-.84-2.24h-70.39c-2.09,0-3.86-.75-5.12-2.16-.91-1.01-1.43-2.37-1.57-4.04h-3.55l-9.2,35.03h3.66l1.2-3.28c1.12-3.12,2.19-5.9,3.17-8.26,1.05-2.55,2.41-4.75,4.04-6.55,3.29-3.63,8.47-5.48,15.41-5.48h47.05l-72.97,105.42.9,2.39h74.14c.88,0,1.75.18,2.61.54,1.73.73,3.74,2.25,4.34,5.43h3.9l4.33-35.71h-3.53c-.77,3.74-1.54,7.01-2.31,9.75Z"/>
      <path class="cls-1" d="M1195.42,280.7l9.17-36.55h-3.78c-3.21,4.22-6.28,6.27-9.35,6.27-2.8,0-6.32-.74-10.75-2.25-1.54-.51-2.99-1.02-4.3-1.51-1.22-.45-2.63-.88-4.19-1.27-1.54-.39-3.33-.71-5.31-.95-1.98-.24-5.11-.37-9.32-.37s-8.57.79-13.34,2.35c-9.45,3.17-17.29,8.75-23.29,16.61-9.02,11.78-13.59,26.02-13.59,42.33,0,15.37,4.99,28.45,14.83,38.88,4.74,5.03,10.59,9.09,17.4,12.05,6.81,2.96,14.57,4.46,23.08,4.46,4.38,0,8.67-.42,12.76-1.26,12.33-2.43,21.83-7.77,28.27-15.88l-1.53-2.05c-9.2,8.85-21.4,13.33-36.29,13.33-13.17,0-24.14-5.19-32.61-15.42-7.6-9.23-11.72-20.14-12.24-32.41l-.09-2.09h48.03l1.11-4.65h-48.98l.17-2.16c1.15-14.57,4.74-26.31,10.68-34.88,3.23-4.58,7.25-8.22,11.95-10.86,4.75-2.66,10.48-4,17.05-4s12.6,1.36,18.06,4.03c2.78,1.36,5.22,3.05,7.25,5.03,2.12,2.06,3.65,4.58,4.54,7.46.84,2.76,1.27,5.95,1.27,9.5,0,1.33-.08,3.39-.25,6.26h3.58Z"/>
      <path class="cls-1" d="M1279.41,309.19c9.17-3.01,16.19-7.98,20.86-14.77,4.13-5.92,6.23-12.38,6.23-19.22,0-9.17-3.08-16.34-9.42-21.91-3.24-2.81-7.45-5.07-12.5-6.72-5.11-1.66-10.23-2.5-15.22-2.5s-12.42.36-21.62,1.07c-4.8.41-8.75.62-11.71.62h-17.9v2.76c2.29.25,4.16.56,5.66.95,2.11.55,3.89,1.55,5.29,2.99,1.59,1.62,2.29,4.91,2.29,10.66v77.44c0,6.3-.79,10.15-2.48,12.1-1.02,1.22-2.46,2.08-4.26,2.51-1.45.35-3.3.68-5.63.99l-.87.13v2.62h43.75v-2.56l-2.35-.26c-3.33-.36-6.03-.71-8.03-1.05-2.35-.4-4.13-1.13-5.44-2.25-1.37-1.16-2.27-2.81-2.66-4.9-.33-1.77-.49-4.17-.49-7.33v-74.38c0-2.23.22-4.38.66-6.39,1.65-7.55,9.26-11.37,22.62-11.37,17.63,0,26.95,9.56,26.95,27.63,0,9.53-2.56,17.33-7.6,23.19-4.58,5.19-10.25,7.81-16.9,7.81h-4.57l-2.22,4.49,64.82,72.68,2.71-2.06-52.57-72.11,2.61-.86Z"/>
      <path class="cls-1" d="M1417.92,262.61c-9.86-12.25-23.52-18.46-40.61-18.46-11.57,0-21.69,2.94-30.08,8.75-3.96,2.74-7.47,5.99-10.45,9.67-2.99,3.7-5.52,7.78-7.5,12.12-1.99,4.36-3.5,8.99-4.49,13.77-.99,4.79-1.49,9.68-1.49,14.52,0,15.67,4.5,29.04,13.39,39.74,9.66,11.71,23.33,17.64,40.62,17.64s30.87-5.89,40.63-17.5c8.93-10.6,13.46-24.02,13.46-39.88s-4.54-29.31-13.48-40.37ZM1414.28,328.18c-5.56,18.88-17.95,28.45-36.81,28.45-10.09,0-18.43-2.76-24.79-8.21-2.98-2.6-5.47-5.69-7.41-9.2-1.9-3.43-3.44-7.18-4.57-11.13-1.12-3.91-1.93-8.07-2.4-12.35-.46-4.24-.7-9.81-.7-16.55s1.06-14.06,3.14-21.4c5.45-19.5,17.81-29.38,36.74-29.38,5.31,0,10.06.76,14.09,2.27,17.16,6.36,25.86,23.96,25.86,52.3,0,9.63-1.06,18.11-3.14,25.2Z"/>
    </g>
  </g>
</svg>