<?xml version="1.0" encoding="UTF-8"?>
<svg xmlns="http://www.w3.org/2000/svg" viewBox="0 0 600 600">
  <defs>
    <style>
      .cls-1 {
        fill: #fff;
      }
    </style>
  </defs>
  <g id="Layer_3" data-name="Layer 3">
    <rect width="600" height="600"/>
  </g>
  <g id="Layer_2" data-name="Layer 2">
    <g>
      <path class="cls-1" d="M303.57,123.4c0-1.88-1.53-3.41-3.41-3.41s-3.41,1.53-3.41,3.41,1.53,3.41,3.41,3.41,3.41-1.53,3.41-3.41Z"/>
      <circle class="cls-1" cx="265.71" cy="143.24" r="3.41"/>
      <circle class="cls-1" cx="265.71" cy="342.94" r="3.41"/>
      <path class="cls-1" d="M296.75,363.05c0,1.88,1.53,3.41,3.41,3.41s3.41-1.53,3.41-3.41-1.53-3.41-3.41-3.41-3.41,1.53-3.41,3.41Z"/>
      <path class="cls-1" d="M368.99,126.58c1.88,0,3.41-1.53,3.41-3.41s-1.53-3.41-3.41-3.41-3.41,1.53-3.41,3.41,1.53,3.41,3.41,3.41Z"/>
      <path class="cls-1" d="M402.85,146.38c.21.3.47.56.8.74l30.81,17.79v35.58c0,.33.07.65.19.94-.15.39-.24.81-.24,1.25,0,1.88,1.53,3.41,3.41,3.41s3.41-1.53,3.41-3.41c0-.44-.09-.86-.25-1.25.12-.29.19-.61.19-.94v-37.03c.03-.19.06-.38.06-.58,0-.29-.05-.57-.12-.85-.07-.37-.22-.71-.44-1.01-.06-.09-.13-.17-.19-.25-.02-.02-.03-.04-.05-.06-.46-.55-1.08-.96-1.8-1.13l-31.63-18.26c-.27-.16-.56-.25-.85-.3-.62-.85-1.62-1.41-2.75-1.41-1.88,0-3.41,1.53-3.41,3.41,0,1.7,1.24,3.09,2.86,3.36Z"/>
      <path class="cls-1" d="M437.81,239.09c-1.88,0-3.41,1.53-3.41,3.41s1.53,3.41,3.41,3.41,3.41-1.53,3.41-3.41-1.53-3.41-3.41-3.41Z"/>
      <path class="cls-1" d="M437.81,278.89c-1.88,0-3.41,1.53-3.41,3.41,0,.44.09.86.24,1.25-.12.29-.19.61-.19.94v35.58l-30.81,17.79c-.37.21-.65.51-.86.85-1.59.29-2.8,1.68-2.8,3.35,0,1.88,1.53,3.41,3.41,3.41,1.19,0,2.23-.61,2.84-1.53.26-.05.52-.13.76-.27l31.29-18.07c1.65-.24,2.93-1.64,2.93-3.36,0-.2-.03-.39-.06-.58v-37.16c0-.33-.07-.65-.19-.94.15-.39.25-.81.25-1.25,0-1.88-1.53-3.41-3.41-3.41Z"/>
      <circle class="cls-1" cx="403.36" cy="182.72" r="3.41"/>
      <path class="cls-1" d="M403.36,225.94c1.88,0,3.41-1.53,3.41-3.41s-1.53-3.41-3.41-3.41-3.41,1.53-3.41,3.41,1.53,3.41,3.41,3.41Z"/>
      <circle class="cls-1" cx="403.36" cy="262.34" r="3.41"/>
      <path class="cls-1" d="M403.36,305.55c1.88,0,3.41-1.53,3.41-3.41s-1.53-3.41-3.41-3.41-3.41,1.53-3.41,3.41,1.53,3.41,3.41,3.41Z"/>
      <path class="cls-1" d="M372.4,361.89c0-1.88-1.53-3.41-3.41-3.41s-3.41,1.53-3.41,3.41,1.53,3.41,3.41,3.41,3.41-1.53,3.41-3.41Z"/>
      <circle class="cls-1" cx="231.22" cy="362.05" r="3.41"/>
      <path class="cls-1" d="M265.57,385.43c.11.09.22.18.35.25l32.29,18.64c.12.09.25.15.39.22l.24.14c.39.22.82.33,1.25.33.3,0,.59-.07.88-.18.57-.14,1.09-.42,1.51-.81l31.78-18.35c.27-.16.5-.36.69-.6,1.71-.18,3.05-1.61,3.05-3.37,0-1.88-1.53-3.41-3.41-3.41-1.06,0-2,.49-2.62,1.25-.37.03-.73.13-1.06.32l-30.81,17.79-30.81-17.79c-.39-.23-.84-.33-1.29-.32-.61-.57-1.43-.93-2.33-.93-1.88,0-3.41,1.53-3.41,3.41s1.48,3.36,3.33,3.4Z"/>
      <path class="cls-1" d="M162.36,245.91c1.88,0,3.41-1.53,3.41-3.41s-1.53-3.41-3.41-3.41-3.41,1.53-3.41,3.41,1.53,3.41,3.41,3.41Z"/>
      <path class="cls-1" d="M196.81,139.62c-1.13,0-2.12.55-2.74,1.4-.31.04-.61.14-.9.31l-31.63,18.26c-.72.18-1.34.58-1.79,1.13-.02.02-.04.05-.07.08-.06.08-.12.15-.18.23-.22.3-.37.64-.44,1.02-.07.27-.12.55-.12.84,0,.2.03.39.06.57v37.04c0,.33.07.65.19.94-.15.39-.24.81-.24,1.25,0,1.88,1.53,3.41,3.41,3.41s3.41-1.53,3.41-3.41c0-.44-.09-.86-.24-1.25.12-.29.19-.61.19-.94v-35.58l30.81-17.79c.32-.19.59-.44.79-.74,1.64-.25,2.9-1.65,2.9-3.36,0-1.88-1.53-3.41-3.41-3.41Z"/>
      <circle class="cls-1" cx="231.26" cy="123.17" r="3.41"/>
      <path class="cls-1" d="M368.99,166.29c1.88,0,3.41-1.53,3.41-3.41s-1.53-3.41-3.41-3.41-3.41,1.53-3.41,3.41,1.53,3.41,3.41,3.41Z"/>
      <path class="cls-1" d="M231.26,166.29c1.88,0,3.41-1.53,3.41-3.41s-1.53-3.41-3.41-3.41-3.41,1.53-3.41,3.41,1.53,3.41,3.41,3.41Z"/>
      <path class="cls-1" d="M365.58,322.25c0,1.88,1.53,3.41,3.41,3.41s3.41-1.53,3.41-3.41-1.53-3.41-3.41-3.41-3.41,1.53-3.41,3.41Z"/>
      <circle class="cls-1" cx="231.26" cy="322.25" r="3.41"/>
      <path class="cls-1" d="M337.95,143.01c0-1.88-1.53-3.41-3.41-3.41s-3.41,1.53-3.41,3.41,1.53,3.41,3.41,3.41,3.41-1.53,3.41-3.41Z"/>
      <path class="cls-1" d="M337.95,342.08c0-1.88-1.53-3.41-3.41-3.41s-3.41,1.53-3.41,3.41,1.53,3.41,3.41,3.41,3.41-1.53,3.41-3.41Z"/>
      <path class="cls-1" d="M196.81,179.31c-1.88,0-3.41,1.53-3.41,3.41s1.53,3.41,3.41,3.41,3.41-1.53,3.41-3.41-1.53-3.41-3.41-3.41Z"/>
      <path class="cls-1" d="M196.81,219.02c-1.88,0-3.41,1.53-3.41,3.41s1.53,3.41,3.41,3.41,3.41-1.53,3.41-3.41-1.53-3.41-3.41-3.41Z"/>
      <path class="cls-1" d="M196.81,298.73c-1.88,0-3.41,1.53-3.41,3.41s1.53,3.41,3.41,3.41,3.41-1.53,3.41-3.41-1.53-3.41-3.41-3.41Z"/>
      <path class="cls-1" d="M197.39,338.73c-.21-.34-.5-.65-.87-.86l-30.81-17.79v-35.58c0-.33-.07-.65-.19-.94.15-.39.24-.81.24-1.25,0-1.88-1.53-3.41-3.41-3.41s-3.41,1.53-3.41,3.41c0,.44.09.86.24,1.25-.12.29-.19.61-.19.94v37.04c-.03.19-.06.38-.06.57,0,.29.05.57.12.84.07.37.22.72.44,1.02.05.08.12.15.18.23.02.02.04.05.06.08.46.55,1.08.95,1.79,1.13l31.63,18.26c.24.14.5.22.77.27.61.93,1.66,1.55,2.85,1.55,0,0,0,0,0,0s0,0,0,0c1.88,0,3.41-1.53,3.41-3.41,0-1.68-1.22-3.07-2.83-3.35Z"/>
      <circle class="cls-1" cx="196.77" cy="262.53" r="3.41"/>
      <path class="cls-1" d="M265.71,106.73c1.09,0,2.05-.52,2.67-1.32.3-.04.61-.13.89-.29l30.81-17.79,30.81,17.79c.33.19.68.29,1.03.32.62.78,1.57,1.29,2.65,1.29,1.88,0,3.41-1.53,3.41-3.41,0-1.75-1.32-3.17-3.02-3.37-.2-.25-.44-.47-.72-.63l-31.77-18.35c-.42-.39-.95-.68-1.53-.82-.69-.26-1.46-.22-2.11.16l-.19.11c-.16.08-.31.16-.45.26l-32.28,18.64c-.29.17-.53.39-.73.64-1.63.25-2.89,1.65-2.89,3.36,0,1.88,1.53,3.41,3.41,3.41Z"/>
      <path class="cls-1" d="M326.82,211.16c.82.13,1.63.41,2.39.86l8.79,5.24c3.24,1.93,4.29,6.12,2.36,9.35-1.28,2.14-3.54,3.33-5.86,3.33-1.19,0-2.39-.31-3.49-.97l-8.79-5.24c-.51-.3-.94-.68-1.34-1.08.13,7.42,6.16,13.41,13.62,13.41s13.64-6.11,13.64-13.64-6.11-13.64-13.64-13.64c-2.85,0-5.49.88-7.68,2.37Z"/>
      <path class="cls-1" d="M286.55,202.96c.37-.36.78-.7,1.25-.98l8.78-5.25c2.15-1.29,4.84-1.29,6.99,0l8.79,5.24c.55.33,1.01.73,1.42,1.17-.07-7.47-6.14-13.51-13.63-13.51s-13.43,5.94-13.61,13.32Z"/>
      <path class="cls-1" d="M305.38,213.69l-5.29-3.16-5.29,3.16c-.75.45-1.56.68-2.37.82,2.2,1.52,4.86,2.42,7.73,2.42s5.48-.87,7.66-2.36c-.84-.13-1.67-.41-2.45-.88Z"/>
      <path class="cls-1" d="M265.65,236.76c2.63,0,5.06-.78,7.14-2.06-.52-.14-1.03-.34-1.52-.61l-8.91-5.02c-2.12-1.19-3.44-3.42-3.47-5.85-.03-2.43,1.24-4.7,3.32-5.94l8.78-5.25c.48-.29.98-.49,1.49-.64-2.02-1.17-4.33-1.9-6.83-1.9-7.53,0-13.64,6.11-13.64,13.64s6.11,13.64,13.64,13.64Z"/>
      <path class="cls-1" d="M348.14,262.34c0-7.53-6.11-13.64-13.64-13.64-2.57,0-4.95.75-7,1.99.55.15,1.09.35,1.61.64l8.87,5.1c2.09,1.2,3.39,3.42,3.42,5.84.03,2.41-1.23,4.66-3.29,5.91l-8.76,5.29c-.5.3-1.03.51-1.57.67,1.99,1.14,4.26,1.84,6.72,1.84,7.53,0,13.64-6.11,13.64-13.64Z"/>
      <path class="cls-1" d="M293.2,271.49c.51.15,1.01.35,1.49.62l5.34,3.12,5.29-3.19c.5-.3,1.03-.51,1.57-.67-1.99-1.14-4.27-1.84-6.73-1.84s-4.92.75-6.96,1.97Z"/>
      <path class="cls-1" d="M286.52,283.17c0,7.53,6.11,13.64,13.64,13.64s13.64-6.11,13.64-13.64c0-.2-.05-.38-.06-.58-.41.42-.85.81-1.37,1.13l-8.76,5.29c-1.08.66-2.31.98-3.53.98s-2.38-.31-3.44-.93l-8.84-5.16c-.47-.28-.89-.61-1.27-.98,0,.08-.02.16-.02.24Z"/>
      <path class="cls-1" d="M265.65,276.7c2.54,0,4.89-.74,6.93-1.95-.52-.15-1.04-.35-1.53-.64l-8.84-5.16c-3.25-1.9-4.35-6.08-2.45-9.33,1.9-3.25,6.07-4.35,9.33-2.45l8.84,5.16c.5.29.94.66,1.33,1.05,0-.11.03-.21.03-.32,0-7.53-6.11-13.64-13.64-13.64s-13.64,6.11-13.64,13.64,6.11,13.64,13.64,13.64Z"/>
      <circle class="cls-1" cx="300.16" cy="163.34" r="6.82" transform="translate(120.47 454.01) rotate(-86.83)"/>
      <path class="cls-1" d="M327.75,183.18c0,3.77,3.05,6.82,6.82,6.82s6.82-3.05,6.82-6.82-3.05-6.82-6.82-6.82-6.82,3.05-6.82,6.82Z"/>
      <path class="cls-1" d="M368.99,209.41c3.77,0,6.82-3.05,6.82-6.82s-3.05-6.82-6.82-6.82-6.82,3.05-6.82,6.82,3.05,6.82,6.82,6.82Z"/>
      <path class="cls-1" d="M368.99,249.51c3.77,0,6.82-3.05,6.82-6.82s-3.05-6.82-6.82-6.82-6.82,3.05-6.82,6.82,3.05,6.82,6.82,6.82Z"/>
      <path class="cls-1" d="M368.99,289.13c3.77,0,6.82-3.05,6.82-6.82s-3.05-6.82-6.82-6.82-6.82,3.05-6.82,6.82,3.05,6.82,6.82,6.82Z"/>
      <path class="cls-1" d="M341.32,303c0-3.77-3.05-6.82-6.82-6.82s-6.82,3.05-6.82,6.82,3.05,6.82,6.82,6.82,6.82-3.05,6.82-6.82Z"/>
      <circle class="cls-1" cx="300.16" cy="322.11" r="6.82" transform="translate(-38.06 604) rotate(-86.83)"/>
      <path class="cls-1" d="M272.47,302.14c0-3.77-3.05-6.82-6.82-6.82s-6.82,3.05-6.82,6.82,3.05,6.82,6.82,6.82,6.82-3.05,6.82-6.82Z"/>
      <circle class="cls-1" cx="231.26" cy="282.31" r="6.82"/>
      <path class="cls-1" d="M231.22,249.32c3.77,0,6.82-3.05,6.82-6.82s-3.05-6.82-6.82-6.82-6.82,3.05-6.82,6.82,3.05,6.82,6.82,6.82Z"/>
      <path class="cls-1" d="M231.22,210.11c3.77,0,6.82-3.05,6.82-6.82s-3.05-6.82-6.82-6.82-6.82,3.05-6.82,6.82,3.05,6.82,6.82,6.82Z"/>
      <path class="cls-1" d="M265.65,189.54c3.77,0,6.82-3.05,6.82-6.82s-3.05-6.82-6.82-6.82-6.82,3.05-6.82,6.82,3.05,6.82,6.82,6.82Z"/>
      <polygon class="cls-1" points="300.63 231.55 289.57 242.44 300.63 253.44 311.46 242.44 300.63 231.55"/>
      <path class="cls-1" d="M92.92,477.64c-1.68-1.44-3.58-2.75-5.71-3.93-2.13-1.18-6.81-3.65-14.05-7.4-1.94-1.06-3.58-2.14-4.91-3.23-2.66-2.18-3.99-4.8-3.99-7.86,0-2.71,1.02-4.92,3.07-6.63,2.05-1.68,4.63-2.51,7.74-2.51,3.43,0,6.23.6,8.38,1.8,1.04.59,1.86,1.31,2.47,2.18.61.87.92,2.04.92,3.51s-.61,3.04-1.84,4.69l2.95,1.96c1.36-.4,2.49-.93,3.39-1.6,2.55-1.84,3.83-4.16,3.83-6.99,0-2.98-1.89-5.37-5.67-7.18-3.59-1.73-8.04-2.59-13.33-2.59-5.72,0-10.42,1.34-14.09,4.03-3.83,2.79-5.75,6.52-5.75,11.18,0,3.78,1.4,7.13,4.19,10.06,1.41,1.46,3.2,2.91,5.37,4.33,2.17,1.42,4.46,2.76,6.87,4.01s4.57,2.32,6.49,3.21,3.64,1.86,5.17,2.91c1.53,1.05,2.78,2.25,3.75,3.59.97,1.34,1.46,2.91,1.46,4.69s-.31,3.33-.92,4.63c-1.92,4.07-6.08,6.11-12.49,6.11-3.7,0-6.9-1.08-9.62-3.23-1.22-.98-2.2-2.12-2.91-3.39-.72-1.28-1.08-2.48-1.08-3.61s.07-2.16.22-3.07c.15-.92.71-2.06,1.7-3.41l-2.16-2.55c-2.1.4-4.04,1.38-5.83,2.95-.96.82-1.76,1.82-2.42,2.97-.65,1.16-.98,2.48-.98,3.97s.33,2.85,1,4.07c1.33,2.39,3.59,4.39,6.79,5.99,4.6,2.29,9.54,3.43,14.81,3.43,6.73,0,12.05-1.28,15.97-3.83,4.42-2.9,6.62-7.21,6.62-12.93,0-3.81-1.81-7.24-5.43-10.3Z"/>
      <path class="cls-1" d="M108.29,446.15c1.52.13,2.73.29,3.63.46.9.17,1.68.55,2.31,1.14s.96,2.39.96,5.43v39.99c0,2.95-.39,4.87-1.16,5.75-.51.56-1.97,1-4.39,1.32l-1.28.2-.08.04v3.27h21.83v-3.31l-1.52-.24c-1.2-.19-2.15-.37-2.85-.54-.71-.17-1.3-.55-1.78-1.14-.48-.58-.72-2.37-.72-5.35v-39.99c0-3.06.4-4.96,1.2-5.71.48-.43,1.17-.71,2.08-.86.9-.15,2.1-.3,3.59-.46v-3.47h-21.83v3.47Z"/>
      <path class="cls-1" d="M173.21,476.6c4.23.29,6.85.77,7.86,1.44,1.22.77,1.89,2.66,2,5.67l.48,11.66c-3.38,3.06-8.74,4.59-16.07,4.59s-12.93-2.91-16.78-8.74c-3.3-4.98-4.95-10.92-4.95-17.84,0-4.87.6-9.11,1.8-12.73.67-2,1.54-3.88,2.63-5.65,1.09-1.77,2.47-3.31,4.13-4.61,1.66-1.3,3.62-2.33,5.89-3.09,2.26-.76,4.54-1.14,6.83-1.14s4.3.17,6.03.52c3.67.69,6.61,1.97,8.82,3.83,1.94,1.6,2.91,4.04,2.91,7.34,0,.67-.01,1.33-.04,2l-.16,2.28h3.79l5.31-20.36h-3.79c-1.62,2.18-3.1,3.27-4.43,3.27s-3.26-.4-5.79-1.2l-2.27-.68c-2.93-.88-6.05-1.32-9.38-1.32-10.17,0-18.15,3.29-23.95,9.86-5.24,5.91-7.86,13.13-7.86,21.67s2.63,15.66,7.9,21.67c5.72,6.49,13.56,9.74,23.51,9.74,6.31,0,11.69-1.12,16.17-3.35l1,17.8h4.99l1.72-35.52c.11-2.98.47-4.88,1.08-5.71.32-.45.75-.76,1.3-.92.54-.16,1.22-.32,2.02-.48v-3.39h-22.67v3.39Z"/>
      <path class="cls-1" d="M203.49,446.15c1.52.13,2.73.29,3.63.46.9.17,1.68.55,2.31,1.14s.96,2.39.96,5.43v39.99c0,2.95-.39,4.87-1.16,5.75-.51.56-1.97,1-4.39,1.32l-1.28.2-.08.04v3.27h21.83v-3.31l-1.52-.24c-1.2-.19-2.15-.37-2.85-.54-.71-.17-1.3-.55-1.78-1.14-.48-.58-.72-2.37-.72-5.35v-39.99c0-3.06.4-4.96,1.2-5.71.48-.43,1.17-.71,2.08-.86.9-.15,2.1-.3,3.59-.46v-3.47h-21.83v3.47Z"/>
      <path class="cls-1" d="M278.21,495.08c-.64.96-1.4,1.72-2.27,2.29s-1.98,1-3.31,1.3c-1.33.29-2.94.48-4.83.56-1.89.08-4.56.12-8,.12s-5.79-.2-7.04-.6c-1.6-.5-2.39-1.64-2.39-3.39v-43.55c0-1.17.11-2.11.32-2.81.21-.7.7-1.32,1.46-1.86.76-.53,2.76-.88,6.01-1.04v-3.43h-23.27v3.47c1.62.13,2.92.3,3.89.5.97.2,1.79.57,2.45,1.12.67.55,1,1.95,1,4.21v42.39c0,1.12-.06,2.04-.18,2.75-.12.72-.5,1.36-1.14,1.94s-2.65,1.02-6.03,1.34v3.35h40.59c.93,0,1.68.27,2.26.82.57.54.9,1.31.98,2.29h3.43l3.07-20.52h-3.71c-1.28,4.42-2.37,7.33-3.27,8.74Z"/>
      <polygon class="cls-1" points="292.14 498.83 299.41 506.06 306.51 498.83 299.41 491.69 292.14 498.83"/>
      <path class="cls-1" d="M360.19,491.99c-.45,1.61-1.1,2.92-1.96,3.93-1.6,1.94-4.59,2.91-8.98,2.91h-21.15l36.72-53.8-.88-2.35h-37.44c-.8,0-1.43-.26-1.9-.78-.47-.52-.65-1.34-.54-2.46h-3.71l-5.35,20.36h3.99l.88-2.39c.58-1.62,1.13-3.05,1.64-4.27.51-1.22,1.14-2.26,1.92-3.11,1.52-1.68,3.94-2.51,7.26-2.51h22.55l-37.24,53.8.92,2.43h39.4c.32,0,.64.07.96.2,1.14.48,1.72,1.45,1.72,2.91h3.91l2.51-20.72h-3.87c-.45,2.29-.91,4.24-1.36,5.85Z"/>
      <path class="cls-1" d="M419.06,462.99l5.31-21.15h-3.83c-1.57,2.18-3.02,3.27-4.35,3.27s-3.09-.37-5.27-1.12c-.8-.27-1.54-.53-2.21-.78s-1.44-.49-2.29-.7c-.85-.21-1.82-.38-2.89-.52-1.08-.13-2.74-.2-4.99-.2s-4.68.43-7.28,1.28c-5.16,1.73-9.38,4.74-12.65,9.02-4.87,6.36-7.3,13.93-7.3,22.71,0,8.33,2.67,15.33,8.02,20.99,2.58,2.74,5.72,4.92,9.42,6.53s7.85,2.42,12.45,2.42c2.37,0,4.66-.23,6.87-.68,7.03-1.38,12.31-4.48,15.85-9.3l-2-2.67c-4.71,5-11.06,7.5-19.04,7.5-6.57,0-11.97-2.55-16.21-7.66-3.83-4.66-5.88-10.08-6.15-16.29h24.79l1.08-4.51h-25.75c.58-7.45,2.38-13.34,5.39-17.68,1.6-2.26,3.56-4.04,5.89-5.35,2.33-1.3,5.12-1.96,8.38-1.96s6.25.67,8.96,2c1.36.67,2.53,1.48,3.51,2.44s1.68,2.11,2.1,3.45c.41,1.34.62,2.89.62,4.65,0,.82-.07,2.26-.2,4.31h3.79Z"/>
      <path class="cls-1" d="M478.02,469.69c2.29-3.27,3.43-6.81,3.43-10.62,0-5.05-1.76-9.13-5.27-12.21-1.81-1.57-4.11-2.81-6.89-3.71-2.78-.9-5.54-1.36-8.26-1.36s-6.51.19-11.36.56c-2.5.21-4.51.32-6.03.32h-10.38v3.43c1.57.13,2.81.32,3.73.56s1.68.67,2.28,1.28c.6.61.9,2.22.9,4.83v40.39c0,2.95-.35,4.83-1.04,5.63-.4.48-.96.8-1.68.98-.72.17-1.66.34-2.83.5l-1.36.2v3.31h24.91v-3.31l-2.16-.24c-1.73-.19-3.11-.37-4.13-.54s-1.8-.49-2.33-.94c-.53-.45-.88-1.1-1.04-1.96-.16-.85-.24-2.06-.24-3.63v-38.8c0-1.09.11-2.13.32-3.11.75-3.41,4.34-5.11,10.78-5.11,8.67,0,13.01,4.46,13.01,13.37,0,4.74-1.24,8.54-3.71,11.42-2.18,2.47-4.86,3.71-8.02,3.71h-3.03l-1.76,3.55,34.92,39.16,2.99-2.27-27.18-37.28c5.03-1.65,8.83-4.35,11.42-8.1Z"/>
      <path class="cls-1" d="M539.57,451.85c-5.38-6.68-12.71-10.02-21.99-10.02-6.28,0-11.71,1.58-16.29,4.75-2.16,1.49-4.04,3.24-5.67,5.25-1.62,2.01-2.97,4.19-4.05,6.55-1.08,2.36-1.88,4.82-2.42,7.4s-.8,5.18-.8,7.78c0,8.46,2.41,15.59,7.22,21.39,5.27,6.39,12.6,9.58,21.99,9.58s16.67-3.17,21.99-9.5c4.84-5.75,7.26-12.91,7.26-21.47s-2.42-15.73-7.26-21.71ZM535.86,486.42c-2.77,9.39-8.83,14.09-18.2,14.09-5.03,0-9.11-1.34-12.25-4.03-1.46-1.28-2.67-2.78-3.63-4.51s-1.72-3.59-2.29-5.59c-.57-2-.98-4.08-1.22-6.27s-.36-5.02-.36-8.52.53-7.12,1.6-10.88c2.71-9.71,8.77-14.57,18.16-14.57,2.66,0,4.99.37,6.98,1.12,8.54,3.17,12.81,11.93,12.81,26.3,0,4.95-.53,9.23-1.6,12.85Z"/>
    </g>
  </g>
</svg>